<svg xmlns="http://www.w3.org/2000/svg" xmlns:xlink="http://www.w3.org/1999/xlink" width="1080" zoomAndPan="magnify" viewBox="0 0 810 809.999993" height="1080" preserveAspectRatio="xMidYMid meet" version="1.0"><defs><g/></defs><rect x="-81" width="972" fill="#ffffff" y="-80.999999" height="971.999992" fill-opacity="1"/><rect x="-81" width="972" fill="#000000" y="-80.999999" height="971.999992" fill-opacity="1"/><path fill="#ffffff" d="M 352.601562 292.796875 L 354.570312 294.746094 L 354.769531 294.941406 C 360.898438 301.292969 360.832031 311.519531 354.570312 317.785156 C 348.308594 324.046875 338.085938 324.113281 331.738281 317.980469 L 331.542969 317.785156 L 329.570312 315.835938 L 324.207031 310.449219 C 317.882812 304.117188 317.882812 293.757812 324.207031 287.410156 C 330.535156 281.078125 340.910156 281.078125 347.238281 287.410156 Z M 461.226562 203.660156 L 465.320312 199.566406 L 485.398438 179.484375 C 491.722656 173.152344 491.722656 162.792969 485.398438 156.441406 C 479.046875 150.113281 468.691406 150.113281 462.367188 156.441406 L 442.292969 176.527344 L 440.101562 178.714844 L 438.199219 180.621094 L 426.683594 192.140625 C 420.355469 198.46875 420.355469 208.828125 426.683594 215.179688 L 438.199219 226.699219 L 440.253906 228.738281 L 462.519531 251.007812 C 468.847656 257.339844 479.199219 257.339844 485.550781 251.007812 C 491.875 244.679688 491.875 234.300781 485.550781 227.96875 L 463.285156 205.699219 Z M 325.128906 156.597656 L 325.128906 156.574219 C 331.453125 150.246094 341.832031 150.246094 348.15625 156.574219 L 485.242188 293.738281 C 491.59375 300.066406 491.59375 310.449219 485.242188 316.777344 C 478.917969 323.105469 468.5625 323.105469 462.214844 316.777344 L 325.128906 179.613281 C 318.800781 173.285156 318.800781 162.925781 325.128906 156.597656 Z M 324.929688 222.253906 C 331.257812 215.925781 341.613281 215.925781 347.960938 222.253906 L 363.570312 237.871094 L 397.347656 271.660156 L 419.613281 293.933594 C 425.9375 300.265625 425.9375 310.644531 419.613281 316.972656 C 413.261719 323.304688 402.910156 323.304688 396.582031 316.972656 L 374.316406 294.703125 L 340.539062 260.910156 L 324.929688 245.292969 C 318.601562 238.964844 318.601562 228.582031 324.929688 222.253906 Z M 324.929688 222.253906 " fill-opacity="1" fill-rule="evenodd"/><g fill="#ffffff" fill-opacity="1"><g transform="translate(64.65987, 432.708632)"><g><path d="M 5.203125 0 L 5.203125 -53.515625 L 23.46875 -53.515625 C 29.738281 -53.515625 34.898438 -52.40625 38.953125 -50.1875 C 43.003906 -47.96875 46.007812 -44.859375 47.96875 -40.859375 C 49.9375 -36.859375 50.921875 -32.160156 50.921875 -26.765625 C 50.921875 -21.359375 49.9375 -16.65625 47.96875 -12.65625 C 46.007812 -8.65625 43.003906 -5.546875 38.953125 -3.328125 C 34.898438 -1.109375 29.738281 0 23.46875 0 Z M 14.984375 -8.40625 L 23.015625 -8.40625 C 27.492188 -8.40625 31.03125 -9.128906 33.625 -10.578125 C 36.226562 -12.035156 38.09375 -14.128906 39.21875 -16.859375 C 40.34375 -19.585938 40.90625 -22.890625 40.90625 -26.765625 C 40.90625 -30.585938 40.34375 -33.875 39.21875 -36.625 C 38.09375 -39.375 36.226562 -41.488281 33.625 -42.96875 C 31.03125 -44.445312 27.492188 -45.1875 23.015625 -45.1875 L 14.984375 -45.1875 Z M 14.984375 -8.40625 "/></g></g></g><g fill="#ffffff" fill-opacity="1"><g transform="translate(130.869048, 432.708632)"><g><path d="M 1.765625 0 L 21.328125 -53.515625 L 32.34375 -53.515625 L 51.90625 0 L 41.515625 0 L 37.234375 -12.390625 L 16.359375 -12.390625 L 12 0 Z M 19.03125 -20.03125 L 34.5625 -20.03125 L 26.765625 -42.28125 Z M 19.03125 -20.03125 "/></g></g></g><g fill="#ffffff" fill-opacity="1"><g transform="translate(196.313691, 432.708632)"><g><path d="M 17.65625 0 L 17.65625 -45.640625 L 2.0625 -45.640625 L 2.0625 -53.515625 L 43.125 -53.515625 L 43.125 -45.640625 L 27.453125 -45.640625 L 27.453125 0 Z M 17.65625 0 "/></g></g></g><g fill="#ffffff" fill-opacity="1"><g transform="translate(253.34849, 432.708632)"><g><path d="M 1.765625 0 L 21.328125 -53.515625 L 32.34375 -53.515625 L 51.90625 0 L 41.515625 0 L 37.234375 -12.390625 L 16.359375 -12.390625 L 12 0 Z M 19.03125 -20.03125 L 34.5625 -20.03125 L 26.765625 -42.28125 Z M 19.03125 -20.03125 "/></g></g></g><g fill="#ffffff" fill-opacity="1"><g transform="translate(318.793127, 432.708632)"><g/></g></g><g fill="#ffffff" fill-opacity="1"><g transform="translate(348.839978, 432.708632)"><g><path d="M 5.203125 0 L 5.203125 -53.515625 L 25 -53.515625 C 29.28125 -53.515625 32.820312 -52.800781 35.625 -51.375 C 38.425781 -49.945312 40.515625 -47.984375 41.890625 -45.484375 C 43.265625 -42.992188 43.953125 -40.191406 43.953125 -37.078125 C 43.953125 -34.117188 43.289062 -31.40625 41.96875 -28.9375 C 40.644531 -26.46875 38.582031 -24.476562 35.78125 -22.96875 C 32.976562 -21.46875 29.382812 -20.71875 25 -20.71875 L 14.984375 -20.71875 L 14.984375 0 Z M 14.984375 -28.671875 L 24.390625 -28.671875 C 27.804688 -28.671875 30.265625 -29.421875 31.765625 -30.921875 C 33.265625 -32.429688 34.015625 -34.484375 34.015625 -37.078125 C 34.015625 -39.734375 33.265625 -41.8125 31.765625 -43.3125 C 30.265625 -44.8125 27.804688 -45.5625 24.390625 -45.5625 L 14.984375 -45.5625 Z M 14.984375 -28.671875 "/></g></g></g><g fill="#ffffff" fill-opacity="1"><g transform="translate(407.098024, 432.708632)"><g><path d="M 5.203125 0 L 5.203125 -53.515625 L 24.84375 -53.515625 C 29.125 -53.515625 32.65625 -52.785156 35.4375 -51.328125 C 38.21875 -49.878906 40.296875 -47.921875 41.671875 -45.453125 C 43.046875 -42.984375 43.734375 -40.242188 43.734375 -37.234375 C 43.734375 -33.972656 42.878906 -30.988281 41.171875 -28.28125 C 39.460938 -25.582031 36.800781 -23.625 33.1875 -22.40625 L 44.265625 0 L 33.03125 0 L 23.09375 -21.09375 L 14.984375 -21.09375 L 14.984375 0 Z M 14.984375 -28.28125 L 24.234375 -28.28125 C 27.492188 -28.28125 29.890625 -29.070312 31.421875 -30.65625 C 32.953125 -32.238281 33.71875 -34.328125 33.71875 -36.921875 C 33.71875 -39.472656 32.960938 -41.515625 31.453125 -43.046875 C 29.953125 -44.578125 27.519531 -45.34375 24.15625 -45.34375 L 14.984375 -45.34375 Z M 14.984375 -28.28125 "/></g></g></g><g fill="#ffffff" fill-opacity="1"><g transform="translate(466.579329, 432.708632)"><g><path d="M 5.203125 0 L 5.203125 -53.515625 L 14.984375 -53.515625 L 14.984375 0 Z M 5.203125 0 "/></g></g></g><g fill="#ffffff" fill-opacity="1"><g transform="translate(498.61395, 432.708632)"><g><path d="M 20.71875 0 L 1.140625 -53.515625 L 11.625 -53.515625 L 26.765625 -10.015625 L 41.96875 -53.515625 L 52.296875 -53.515625 L 32.71875 0 Z M 20.71875 0 "/></g></g></g><g fill="#ffffff" fill-opacity="1"><g transform="translate(563.905695, 432.708632)"><g><path d="M 1.765625 0 L 21.328125 -53.515625 L 32.34375 -53.515625 L 51.90625 0 L 41.515625 0 L 37.234375 -12.390625 L 16.359375 -12.390625 L 12 0 Z M 19.03125 -20.03125 L 34.5625 -20.03125 L 26.765625 -42.28125 Z M 19.03125 -20.03125 "/></g></g></g><g fill="#ffffff" fill-opacity="1"><g transform="translate(629.350332, 432.708632)"><g><path d="M 29.4375 0.921875 C 24.03125 0.921875 19.390625 -0.238281 15.515625 -2.5625 C 11.640625 -4.882812 8.65625 -8.117188 6.5625 -12.265625 C 4.476562 -16.421875 3.4375 -21.226562 3.4375 -26.6875 C 3.4375 -32.132812 4.476562 -36.945312 6.5625 -41.125 C 8.65625 -45.3125 11.640625 -48.578125 15.515625 -50.921875 C 19.390625 -53.265625 24.03125 -54.4375 29.4375 -54.4375 C 35.851562 -54.4375 41.113281 -52.84375 45.21875 -49.65625 C 49.320312 -46.46875 51.882812 -41.992188 52.90625 -36.234375 L 42.125 -36.234375 C 41.457031 -39.140625 40.039062 -41.421875 37.875 -43.078125 C 35.71875 -44.734375 32.851562 -45.5625 29.28125 -45.5625 C 24.332031 -45.5625 20.457031 -43.878906 17.65625 -40.515625 C 14.851562 -37.148438 13.453125 -32.539062 13.453125 -26.6875 C 13.453125 -20.820312 14.851562 -16.21875 17.65625 -12.875 C 20.457031 -9.539062 24.332031 -7.875 29.28125 -7.875 C 32.851562 -7.875 35.71875 -8.648438 37.875 -10.203125 C 40.039062 -11.753906 41.457031 -13.910156 42.125 -16.671875 L 52.90625 -16.671875 C 51.882812 -11.160156 49.320312 -6.847656 45.21875 -3.734375 C 41.113281 -0.628906 35.851562 0.921875 29.4375 0.921875 Z M 29.4375 0.921875 "/></g></g></g><g fill="#ffffff" fill-opacity="1"><g transform="translate(697.547274, 432.708632)"><g><path d="M 19.03125 0 L 19.03125 -19.03125 L 1.078125 -53.515625 L 12.15625 -53.515625 L 24 -28.828125 L 35.78125 -53.515625 L 46.71875 -53.515625 L 28.828125 -19.03125 L 28.828125 0 Z M 19.03125 0 "/></g></g></g><g fill="#ffffff" fill-opacity="1"><g transform="translate(227.386424, 539.208626)"><g><path d="M 23.46875 0.921875 C 19.539062 0.921875 16.070312 0.242188 13.0625 -1.109375 C 10.0625 -2.460938 7.691406 -4.398438 5.953125 -6.921875 C 4.222656 -9.441406 3.332031 -12.507812 3.28125 -16.125 L 13.609375 -16.125 C 13.710938 -13.632812 14.617188 -11.535156 16.328125 -9.828125 C 18.035156 -8.117188 20.390625 -7.265625 23.390625 -7.265625 C 25.992188 -7.265625 28.054688 -7.890625 29.578125 -9.140625 C 31.109375 -10.390625 31.875 -12.054688 31.875 -14.140625 C 31.875 -16.335938 31.195312 -18.046875 29.84375 -19.265625 C 28.5 -20.484375 26.703125 -21.472656 24.453125 -22.234375 C 22.210938 -23.003906 19.820312 -23.820312 17.28125 -24.6875 C 13.144531 -26.113281 9.992188 -27.945312 7.828125 -30.1875 C 5.671875 -32.4375 4.59375 -35.421875 4.59375 -39.140625 C 4.539062 -42.304688 5.289062 -45.019531 6.84375 -47.28125 C 8.394531 -49.550781 10.519531 -51.3125 13.21875 -52.5625 C 15.925781 -53.8125 19.035156 -54.4375 22.546875 -54.4375 C 26.117188 -54.4375 29.265625 -53.796875 31.984375 -52.515625 C 34.710938 -51.242188 36.851562 -49.460938 38.40625 -47.171875 C 39.96875 -44.878906 40.800781 -42.148438 40.90625 -38.984375 L 30.421875 -38.984375 C 30.378906 -40.867188 29.65625 -42.535156 28.25 -43.984375 C 26.84375 -45.441406 24.894531 -46.171875 22.40625 -46.171875 C 20.257812 -46.222656 18.457031 -45.703125 17 -44.609375 C 15.550781 -43.515625 14.828125 -41.921875 14.828125 -39.828125 C 14.828125 -38.046875 15.390625 -36.628906 16.515625 -35.578125 C 17.640625 -34.535156 19.164062 -33.65625 21.09375 -32.9375 C 23.03125 -32.226562 25.25 -31.46875 27.75 -30.65625 C 30.40625 -29.738281 32.828125 -28.664062 35.015625 -27.4375 C 37.203125 -26.21875 38.957031 -24.601562 40.28125 -22.59375 C 41.613281 -20.582031 42.28125 -17.992188 42.28125 -14.828125 C 42.28125 -12.023438 41.566406 -9.425781 40.140625 -7.03125 C 38.710938 -4.632812 36.597656 -2.707031 33.796875 -1.25 C 30.992188 0.195312 27.550781 0.921875 23.46875 0.921875 Z M 23.46875 0.921875 "/></g></g></g><g fill="#ffffff" fill-opacity="1"><g transform="translate(284.879943, 539.208626)"><g><path d="M 19.03125 0 L 19.03125 -19.03125 L 1.078125 -53.515625 L 12.15625 -53.515625 L 24 -28.828125 L 35.78125 -53.515625 L 46.71875 -53.515625 L 28.828125 -19.03125 L 28.828125 0 Z M 19.03125 0 "/></g></g></g><g fill="#ffffff" fill-opacity="1"><g transform="translate(344.514147, 539.208626)"><g><path d="M 23.46875 0.921875 C 19.539062 0.921875 16.070312 0.242188 13.0625 -1.109375 C 10.0625 -2.460938 7.691406 -4.398438 5.953125 -6.921875 C 4.222656 -9.441406 3.332031 -12.507812 3.28125 -16.125 L 13.609375 -16.125 C 13.710938 -13.632812 14.617188 -11.535156 16.328125 -9.828125 C 18.035156 -8.117188 20.390625 -7.265625 23.390625 -7.265625 C 25.992188 -7.265625 28.054688 -7.890625 29.578125 -9.140625 C 31.109375 -10.390625 31.875 -12.054688 31.875 -14.140625 C 31.875 -16.335938 31.195312 -18.046875 29.84375 -19.265625 C 28.5 -20.484375 26.703125 -21.472656 24.453125 -22.234375 C 22.210938 -23.003906 19.820312 -23.820312 17.28125 -24.6875 C 13.144531 -26.113281 9.992188 -27.945312 7.828125 -30.1875 C 5.671875 -32.4375 4.59375 -35.421875 4.59375 -39.140625 C 4.539062 -42.304688 5.289062 -45.019531 6.84375 -47.28125 C 8.394531 -49.550781 10.519531 -51.3125 13.21875 -52.5625 C 15.925781 -53.8125 19.035156 -54.4375 22.546875 -54.4375 C 26.117188 -54.4375 29.265625 -53.796875 31.984375 -52.515625 C 34.710938 -51.242188 36.851562 -49.460938 38.40625 -47.171875 C 39.96875 -44.878906 40.800781 -42.148438 40.90625 -38.984375 L 30.421875 -38.984375 C 30.378906 -40.867188 29.65625 -42.535156 28.25 -43.984375 C 26.84375 -45.441406 24.894531 -46.171875 22.40625 -46.171875 C 20.257812 -46.222656 18.457031 -45.703125 17 -44.609375 C 15.550781 -43.515625 14.828125 -41.921875 14.828125 -39.828125 C 14.828125 -38.046875 15.390625 -36.628906 16.515625 -35.578125 C 17.640625 -34.535156 19.164062 -33.65625 21.09375 -32.9375 C 23.03125 -32.226562 25.25 -31.46875 27.75 -30.65625 C 30.40625 -29.738281 32.828125 -28.664062 35.015625 -27.4375 C 37.203125 -26.21875 38.957031 -24.601562 40.28125 -22.59375 C 41.613281 -20.582031 42.28125 -17.992188 42.28125 -14.828125 C 42.28125 -12.023438 41.566406 -9.425781 40.140625 -7.03125 C 38.710938 -4.632812 36.597656 -2.707031 33.796875 -1.25 C 30.992188 0.195312 27.550781 0.921875 23.46875 0.921875 Z M 23.46875 0.921875 "/></g></g></g><g fill="#ffffff" fill-opacity="1"><g transform="translate(402.00767, 539.208626)"><g><path d="M 17.65625 0 L 17.65625 -45.640625 L 2.0625 -45.640625 L 2.0625 -53.515625 L 43.125 -53.515625 L 43.125 -45.640625 L 27.453125 -45.640625 L 27.453125 0 Z M 17.65625 0 "/></g></g></g><g fill="#ffffff" fill-opacity="1"><g transform="translate(459.04248, 539.208626)"><g><path d="M 5.203125 0 L 5.203125 -53.515625 L 40.140625 -53.515625 L 40.140625 -45.640625 L 14.984375 -45.640625 L 14.984375 -30.96875 L 37.84375 -30.96875 L 37.84375 -23.3125 L 14.984375 -23.3125 L 14.984375 -7.875 L 40.140625 -7.875 L 40.140625 0 Z M 5.203125 0 "/></g></g></g><g fill="#ffffff" fill-opacity="1"><g transform="translate(515.083393, 539.208626)"><g><path d="M 5.203125 0 L 5.203125 -53.515625 L 16.8125 -53.515625 L 33.875 -19.578125 L 50.6875 -53.515625 L 62.3125 -53.515625 L 62.3125 0 L 52.515625 0 L 52.515625 -36.921875 L 37.609375 -7.640625 L 29.890625 -7.640625 L 14.984375 -36.921875 L 14.984375 0 Z M 5.203125 0 "/></g></g></g></svg>